<svg width="30" height="18" viewBox="0 0 30 18" fill="none" xmlns="http://www.w3.org/2000/svg">
<path d="M27.6856 18H23.7481C23.2794 18 22.8106 17.7188 22.5294 17.3438L22.1544 16.7344C21.92 16.4531 19.7637 13.9688 18.4512 13.1719C17.9356 12.8906 17.7481 12.9375 17.7481 12.9375C17.7481 12.9375 17.7012 13.0781 17.7012 13.125V15.6094C17.7012 16.9219 16.6231 17.9531 15.3575 17.9531H14.42C14.1856 17.9531 8.93561 17.8594 4.76374 11.625C1.48249 6.75 0.404365 3.5625 0.0293654 1.73438C-0.0643846 1.3125 0.0762404 0.890625 0.310615 0.5625C0.591865 0.234375 0.966865 0.0468752 1.38874 0.0468752H4.71687C5.32624 0.0468752 5.84187 0.421875 6.02937 1.03125C6.40437 2.10938 7.34187 4.875 8.46687 6.65625C10.1075 9.375 10.7637 9.60938 10.9512 9.60938C11.0919 9.375 11.045 8.4375 11.045 7.82813C11.045 7.54688 11.045 7.3125 11.045 7.03125C11.045 6.84375 11.045 6.60938 11.045 6.375C11.045 5.20312 11.0919 3.60938 10.6231 2.85938L9.68562 1.5C9.49812 1.21875 9.45124 0.84375 9.63874 0.515625C9.77937 0.1875 10.1075 0 10.4825 0H15.8262C16.6231 0 17.2325 0.65625 17.2325 1.40625V8.15625C17.2325 8.20313 17.2794 8.25 17.2794 8.25C17.2794 8.25 17.4669 8.25 17.9825 7.78125C19.0606 6.70312 20.42 4.6875 21.7794 1.92187L22.2481 0.84375C22.4825 0.328125 22.9981 0 23.5606 0H27.0294C27.4981 0 27.92 0.234375 28.2012 0.609375C28.4825 0.984375 28.5294 1.5 28.3419 1.92187L27.9669 2.90625V2.95313C27.92 3.04688 26.6544 5.53125 25.3419 7.35938C24.3106 8.76562 23.8887 9.42188 23.9825 9.65625C24.0762 9.79688 24.6856 10.5 25.295 11.0625C26.42 12.2344 27.8262 13.7344 28.3419 14.7188C28.5762 15.1406 28.8106 15.5156 28.9512 15.8438C29.1856 16.2656 29.1856 16.7812 28.9044 17.25C28.6231 17.7656 28.2012 18 27.6856 18ZM17.8419 12C18.17 12 18.545 12.1406 18.9669 12.375C20.5137 13.2656 22.8575 16.0313 22.9512 16.1719L22.9981 16.2188L23.3731 16.8281C23.4669 16.9688 23.6075 17.0625 23.795 17.0625H27.6856C27.92 17.0625 28.0606 16.9219 28.1075 16.8281C28.1544 16.7812 28.2481 16.5938 28.1075 16.3594C27.92 16.0312 27.7325 15.6563 27.4981 15.2344C27.0294 14.3906 25.6231 12.8906 24.5919 11.7656C23.5606 10.6406 23.1856 10.2656 23.0919 10.0312C22.8106 9.32812 23.2325 8.76562 24.5919 6.89063C25.8106 5.20313 26.9825 2.90625 27.1231 2.625L27.4981 1.64063C27.545 1.5 27.545 1.3125 27.4512 1.21875C27.3575 1.07813 27.2169 1.03125 27.0762 1.03125H23.6075C23.42 1.03125 23.2325 1.125 23.1856 1.3125L22.7169 2.4375C21.6856 4.45313 20.1856 7.125 18.7325 8.57812C18.1231 9.1875 17.5606 9.375 17.0919 9.23438C16.5294 9.04688 16.3887 8.4375 16.3887 8.39063C16.3887 8.34375 16.3887 8.34375 16.3887 8.29688V1.5C16.3887 1.21875 16.1544 1.03125 15.92 1.03125H10.4825L11.42 2.39062C12.0294 3.375 12.0294 5.10938 11.9825 6.46875C11.9825 6.70313 11.9825 6.89062 11.9825 7.07812C11.9825 7.3125 11.9825 7.59375 11.9825 7.82813C12.0294 9.14063 12.0294 10.3594 11.1856 10.5469C10.2481 10.7344 9.26374 9.75 7.66999 7.17188C6.59187 5.34375 5.65437 2.76563 5.18562 1.35938C5.13874 1.17188 4.95124 1.03125 4.71687 1.03125H1.43562C1.29499 1.03125 1.15437 1.07813 1.06062 1.21875C0.966865 1.3125 0.966865 1.45313 0.966865 1.59375C1.29499 3.32813 2.37312 6.375 5.56062 11.1562C9.45124 16.9688 14.3731 17.0625 14.42 17.0625H15.3575C16.1544 17.0625 16.7637 16.4062 16.7637 15.6562V13.1719C16.7637 13.125 16.7637 12.4688 17.2794 12.1406C17.4669 12.0469 17.6544 12 17.8419 12Z" fill="black"/>
</svg>
